<svg xmlns="http://www.w3.org/2000/svg" viewBox="0 0 1024 1024" width="1024" height="1024">
<rect x="0" y="0" width="1024" height="1024" fill="#ffffff"/>
<g transform="translate(512.0,512.0) scale(0.155152,-0.155152) translate(-2040.00,-691.00)">
<path d="M831 483 810 450 1152 1371Q1159 1390 1164.5 1395.0Q1170 1400 1181 1400H1487Q1491 1400 1493.5 1398.5Q1496 1397 1496 1394Q1496 1392 1493.5 1390.0Q1491 1388 1485 1387L1393 1373Q1377 1371 1369.5 1358.5Q1362 1346 1363 1326L1452 68Q1454 46 1460.0 38.0Q1466 30 1485 26L1572 13Q1577 13 1579.5 11.5Q1582 10 1582 6Q1582 4 1580.0 2.0Q1578 0 1574 0H1085Q1080 0 1078.0 2.0Q1076 4 1076 6Q1076 10 1078.5 11.5Q1081 13 1087 13L1173 26Q1193 30 1201.0 39.0Q1209 48 1208 68L1123 1271L1138 1281L733 154Q728 140 723.5 135.5Q719 131 715 131Q713 131 710.0 133.5Q707 136 704.5 141.0Q702 146 698 154L256 1264L269 1289L189 136Q187 97 212.0 70.0Q237 43 281 31L379 13Q384 12 386.0 10.5Q388 9 388 6Q388 4 386.5 2.0Q385 0 381 0H2Q-2 0 -4.0 2.0Q-6 4 -6 6Q-6 10 -3.0 11.0Q0 12 4 13L73 30Q115 42 141.5 69.0Q168 96 171 138L248 1258Q253 1311 245.5 1340.0Q238 1369 214 1372L136 1383Q125 1385 119.5 1386.5Q114 1388 114 1392Q114 1400 130 1400H441Q451 1400 457.0 1395.0Q463 1390 469 1375Z M2075.0 93V101L2065.0 92V715Q2065.0 796 2032.5 838.5Q2000.0 881 1937.0 881Q1867.0 881 1833.5 847.0Q1800.0 813 1800.0 773V698Q1800.0 653 1769.0 622.5Q1738.0 592 1689.0 592Q1654.0 592 1631.0 614.0Q1608.0 636 1608.0 680Q1608.0 732 1648.5 781.0Q1689.0 830 1768.0 862.0Q1847.0 894 1962.0 894Q2119.0 894 2196.5 826.5Q2274.0 759 2274.0 637V112Q2274.0 74 2287.0 57.5Q2300.0 41 2319.0 41Q2337.0 41 2351.0 52.0Q2365.0 63 2368.0 87Q2369.0 91 2370.5 92.0Q2372.0 93 2373.0 93Q2376.0 93 2377.0 92.0Q2378.0 91 2378.0 87Q2378.0 70 2362.0 45.5Q2346.0 21 2311.0 2.0Q2276.0 -17 2218.0 -17Q2144.0 -17 2109.5 13.5Q2075.0 44 2075.0 93ZM1559.0 193Q1559.0 299 1646.5 364.5Q1734.0 430 1919.0 430Q1985.0 430 2028.0 417.5Q2071.0 405 2107.0 386L2100.0 379Q2064.0 396 2025.0 406.0Q1986.0 416 1938.0 416Q1856.0 416 1812.0 365.0Q1768.0 314 1768.0 224Q1768.0 137 1810.0 89.5Q1852.0 42 1919.0 42Q1965.0 42 2010.0 63.0Q2055.0 84 2085.0 123L2095.0 117Q2051.0 52 1974.5 17.0Q1898.0 -18 1810.0 -18Q1698.0 -18 1628.5 41.0Q1559.0 100 1559.0 193Z M2637.0 489Q2637.0 623 2675.0 712.5Q2713.0 802 2772.0 847.5Q2831.0 893 2894.0 893Q2967.0 893 3006.0 848.5Q3045.0 804 3045.0 724Q3045.0 658 3014.5 625.5Q2984.0 593 2938.0 593Q2895.0 593 2873.0 617.5Q2851.0 642 2849.0 690L2848.0 720Q2848.0 753 2835.0 769.5Q2822.0 786 2790.0 786Q2755.0 786 2722.5 752.5Q2690.0 719 2669.0 652.0Q2648.0 585 2648.0 484ZM2648.0 873V535V58Q2648.0 47 2654.5 39.0Q2661.0 31 2673.0 28L2772.0 13Q2778.0 12 2779.5 10.5Q2781.0 9 2781.0 6Q2781.0 4 2779.0 2.0Q2777.0 0 2772.0 0H2355.0Q2351.0 0 2348.0 2.5Q2345.0 5 2345.0 7Q2345.0 9 2348.5 11.5Q2352.0 14 2358.0 15L2416.0 23Q2429.0 26 2434.5 33.0Q2440.0 40 2440.0 49V790Q2440.0 796 2437.5 800.0Q2435.0 804 2428.0 804H2354.0Q2352.0 804 2349.5 806.0Q2347.0 808 2347.0 810Q2347.0 813 2349.5 815.0Q2352.0 817 2356.0 818L2620.0 882Q2627.0 884 2631.0 884.5Q2635.0 885 2638.0 885Q2644.0 885 2646.0 881.5Q2648.0 878 2648.0 873Z M3312.0 879V53Q3312.0 41 3318.0 33.5Q3324.0 26 3336.0 23L3395.0 14Q3401.0 13 3403.0 11.0Q3405.0 9 3405.0 6Q3405.0 4 3403.0 2.0Q3401.0 0 3397.0 0H3016.0Q3014.0 0 3011.5 2.0Q3009.0 4 3009.0 6Q3009.0 8 3011.0 10.0Q3013.0 12 3018.0 13L3080.0 23Q3093.0 26 3098.5 33.5Q3104.0 41 3104.0 52V787Q3104.0 793 3101.5 796.0Q3099.0 799 3092.0 799H3020.0Q3016.0 799 3014.0 801.0Q3012.0 803 3012.0 806Q3012.0 809 3014.5 810.5Q3017.0 812 3020.0 813L3284.0 887Q3292.0 889 3295.5 889.5Q3299.0 890 3302.0 890Q3307.0 890 3309.5 887.0Q3312.0 884 3312.0 879ZM3203.0 1034Q3147.0 1034 3112.0 1071.5Q3077.0 1109 3077.0 1164Q3077.0 1219 3112.5 1256.5Q3148.0 1294 3203.0 1294Q3260.0 1294 3296.0 1256.0Q3332.0 1218 3332.0 1164Q3332.0 1109 3295.5 1071.5Q3259.0 1034 3203.0 1034Z M3683.0 879V53Q3683.0 41 3689.0 33.5Q3695.0 26 3707.0 23L3766.0 14Q3772.0 13 3774.0 11.0Q3776.0 9 3776.0 6Q3776.0 4 3774.0 2.0Q3772.0 0 3768.0 0H3387.0Q3385.0 0 3382.5 2.0Q3380.0 4 3380.0 6Q3380.0 8 3382.0 10.0Q3384.0 12 3389.0 13L3451.0 23Q3464.0 26 3469.5 33.5Q3475.0 41 3475.0 52V787Q3475.0 793 3472.5 796.0Q3470.0 799 3463.0 799H3391.0Q3387.0 799 3385.0 801.0Q3383.0 803 3383.0 806Q3383.0 809 3385.5 810.5Q3388.0 812 3391.0 813L3655.0 887Q3663.0 889 3666.5 889.5Q3670.0 890 3673.0 890Q3678.0 890 3680.5 887.0Q3683.0 884 3683.0 879ZM3574.0 1034Q3518.0 1034 3483.0 1071.5Q3448.0 1109 3448.0 1164Q3448.0 1219 3483.5 1256.5Q3519.0 1294 3574.0 1294Q3631.0 1294 3667.0 1256.0Q3703.0 1218 3703.0 1164Q3703.0 1109 3666.5 1071.5Q3630.0 1034 3574.0 1034Z" fill="#1f1a22"/>
<circle cx="3973.50" cy="112.50" r="112.50" fill="#6b3550"/>
</g>
</svg>